<svg width="205" height="274" viewBox="0 0 205 274" fill="none" xmlns="http://www.w3.org/2000/svg">
<g filter="url(#filter0_d)">
<circle cx="55" cy="219" r="35" fill="#4AC72A"/>
<circle cx="55" cy="219" r="29.5" stroke="#EAEAEA" stroke-width="11"/>
</g>
<path d="M187.034 117.153L130 236.977L72.9655 117.153L187.034 117.153Z" fill="#FAFFC4" stroke="#646464" stroke-width="10"/>
<mask id="path-4-inside-1" fill="white">
<path d="M205 75C205 55.1088 197.098 36.0322 183.033 21.967C168.968 7.90177 149.891 1.50175e-06 130 0C110.109 -1.50175e-06 91.0322 7.90176 76.967 21.967C62.9018 36.0322 55 55.1088 55 75L112.399 75C112.399 70.332 114.254 65.8551 117.554 62.5543C120.855 59.2535 125.332 57.3992 130 57.3992C134.668 57.3992 139.145 59.2535 142.446 62.5543C145.746 65.8551 147.601 70.332 147.601 75H205Z"/>
</mask>
<path d="M205 75C205 55.1088 197.098 36.0322 183.033 21.967C168.968 7.90177 149.891 1.50175e-06 130 0C110.109 -1.50175e-06 91.0322 7.90176 76.967 21.967C62.9018 36.0322 55 55.1088 55 75L112.399 75C112.399 70.332 114.254 65.8551 117.554 62.5543C120.855 59.2535 125.332 57.3992 130 57.3992C134.668 57.3992 139.145 59.2535 142.446 62.5543C145.746 65.8551 147.601 70.332 147.601 75H205Z" fill="#FAFFC4" stroke="#646464" stroke-width="20" stroke-linecap="round" mask="url(#path-4-inside-1)"/>
<defs>
<filter id="filter0_d" x="0" y="164" width="110" height="110" filterUnits="userSpaceOnUse" color-interpolation-filters="sRGB">
<feFlood flood-opacity="0" result="BackgroundImageFix"/>
<feColorMatrix in="SourceAlpha" type="matrix" values="0 0 0 0 0 0 0 0 0 0 0 0 0 0 0 0 0 0 127 0"/>
<feOffset/>
<feGaussianBlur stdDeviation="10"/>
<feColorMatrix type="matrix" values="0 0 0 0 0 0 0 0 0 0 0 0 0 0 0 0 0 0 0.3 0"/>
<feBlend mode="normal" in2="BackgroundImageFix" result="effect1_dropShadow"/>
<feBlend mode="normal" in="SourceGraphic" in2="effect1_dropShadow" result="shape"/>
</filter>
</defs>
</svg>
